#!OML:ASF H:\Punching\Project 1\Capture day 1\Session 1\female.ASF
:FULLY-SPECIFIED
:DEGREES
4249
root 11.2718 15.6525 -3.97624 364.427 63.5681 -5.8578
lowerback -6.73962 1.96009 5.65484
upperback -6.36968 2.52232 -0.274105
thorax -2.59333 1.11899 -3.33904
lowerneck -10.5475 4.71501 13.2493
upperneck 42.1482 8.0216 -5.76979
head 18.4909 5.28101 -3.43128
rclavicle -4.58074e-014 -1.69961e-014
rhumerus -34.6775 5.51274 -85.5475
rradius 39.7638
rwrist -0.844784
rhand -14.9811 -6.6487
rfingers 7.12502
rthumb 11.183 -36.3307
lclavicle -4.58074e-014 -1.69961e-014
lhumerus -48.6125 9.85643 69.444
lradius 30.0832
lwrist -18.8427
lhand -4.40488 12.4292
lfingers 7.12502
lthumb 21.3651 41.2713
rfemur -10.8723 8.3398 28.6341
rtibia 18.7035
rfoot -15.3538 -2.35379
rtoes 15.4175
lfemur -32.7639 -12.6785 -3.17444
ltibia 33.4869
lfoot -8.77188 9.19704
ltoes -3.42914
4250
root 11.3457 15.6552 -3.97249 364.563 62.5968 -5.80561
lowerback -6.76217 1.96306 5.61727
upperback -6.38119 2.52626 -0.207516
thorax -2.59634 1.1228 -3.24812
lowerneck -10.5935 4.75594 13.1905
upperneck 42.1144 8.04329 -5.73733
head 18.4802 5.27132 -3.40213
rclavicle -1.52039e-014 -1.66482e-015
rhumerus -34.5844 5.81896 -85.732
rradius 39.7109
rwrist -0.768063
rhand -14.9855 -6.60875
rfingers 7.12502
rthumb 11.1788 -36.291
lclavicle -1.52039e-014 -1.66482e-015
lhumerus -48.5631 9.86003 69.5381
lradius 30.1727
lwrist -18.8028
lhand -4.3592 12.2458
lfingers 7.12502
lthumb 21.409 41.083
rfemur -10.5193 8.66052 28.4983
rtibia 18.3289
rfoot -15.3834 -1.74515
rtoes 15.3018
lfemur -32.7764 -13.4323 -2.2493
ltibia 32.0228
lfoot -8.17356 8.01187
ltoes -4.85324
4251
root 11.4194 15.658 -3.96832 364.727 61.5976 -5.74515
lowerback -6.82078 1.9439 5.5061
upperback -6.38304 2.50196 -0.0928139
thorax -2.576 1.11704 -3.06618
lowerneck -10.6464 4.79877 13.0843
upperneck 42.0517 8.08238 -5.72526
head 18.4536 5.25613 -3.37071
rclavicle -1.3171e-014 -1.62755e-014
rhumerus -34.4717 6.16957 -85.8644
rradius 39.6214
rwrist -0.672425
rhand -15.0033 -6.55271
rfingers 7.12502
rthumb 11.1616 -36.2358
lclavicle -1.3171e-014 -1.62755e-014
lhumerus -48.5332 9.97605 69.6374
lradius 30.2599
lwrist -18.8214
lhand -4.3186 12.0487
lfingers 7.12502
lthumb 21.448 40.8814
rfemur -10.1999 9.00981 28.3487
rtibia 17.9667
rfoot -15.4084 -1.13952
rtoes 15.1953
lfemur -32.788 -14.0607 -1.35476
ltibia 30.6202
lfoot -7.59614 6.50604
ltoes -6.25782
4252
root 11.4932 15.6607 -3.96459 364.899 60.5696 -5.69733
lowerback -6.90777 1.91184 5.3615
upperback -6.37512 2.46033 0.0543333
thorax -2.53338 1.10523 -2.83183
lowerneck -10.7217 4.84147 12.9423
upperneck 41.9689 8.12688 -5.72365
head 18.4192 5.23385 -3.33638
rclavicle -3.16735e-014 4.72114e-016
rhumerus -34.343 6.53756 -85.9556
rradius 39.4922
rwrist -0.549061
rhand -15.0261 -6.49562
rfingers 7.12502
rthumb 11.1396 -36.1799
lclavicle -3.16735e-014 4.72114e-016
lhumerus -48.5106 10.1729 69.7411
lradius 30.3493
lwrist -18.8823
lhand -4.28518 11.8672
lfingers 7.12502
lthumb 21.4801 40.6962
rfemur -9.91827 9.37521 28.1916
rtibia 17.6262
rfoot -15.4317 -0.526214
rtoes 15.0864
lfemur -32.792 -14.5651 -0.493091
ltibia 29.2779
lfoot -7.04405 4.682
ltoes -7.67045
4253
root 11.5678 15.6632 -3.96165 365.07 59.5254 -5.64305
lowerback -6.99028 1.90095 5.24542
upperback -6.36192 2.44485 0.161845
thorax -2.48281 1.10468 -2.6533
lowerneck -10.8402 4.85622 12.8284
upperneck 41.8873 8.10016 -5.70034
head 18.3871 5.18859 -3.30975
rclavicle 7.20905e-015 5.81445e-015
rhumerus -34.2275 6.7441 -86.022
rradius 39.3211
rwrist -0.327761
rhand -14.9995 -6.3745
rfingers 7.12502
rthumb 11.1652 -36.0574
lclavicle 7.20905e-015 5.81445e-015
lhumerus -48.4627 10.2301 69.8718
lradius 30.4712
lwrist -18.8855
lhand -4.25143 11.7584
lfingers 7.12502
lthumb 21.5125 40.5838
rfemur -9.64795 9.74438 28.0167
rtibia 17.3121
rfoot -15.461 0.0965504
rtoes 15.003
lfemur -32.7616 -14.9936 0.315683
ltibia 27.997
lfoot -6.52606 2.57733
ltoes -9.00075
4254
root 11.6439 15.6652 -3.9598 365.233 58.475 -5.5746
lowerback -7.0777 1.90507 5.1506
upperback -6.32602 2.446 0.236495
thorax -2.40231 1.11167 -2.51919
lowerneck -11.0052 4.84505 12.7263
upperneck 41.8035 8.0061 -5.64815
head 18.3551 5.11984 -3.2837
rclavicle -5.30817e-015 -7.40473e-015
rhumerus -34.1069 6.82836 -86.0695
rradius 39.1177
rwrist -0.085578
rhand -14.9672 -6.26965
rfingers 7.12502
rthumb 11.1964 -35.9509
lclavicle -5.30817e-015 -7.40473e-015
lhumerus -48.3735 10.1859 70.0309
lradius 30.6157
lwrist -18.8409
lhand -4.23914 11.7212
lfingers 7.12502
lthumb 21.5243 40.5452
rfemur -9.37725 10.1044 27.8187
rtibia 17.0316
rfoot -15.5038 0.727315
rtoes 14.9274
lfemur -32.6867 -15.4039 1.06524
ltibia 26.7806
lfoot -6.04972 0.27864
ltoes -10.1609
4255
root 11.7216 15.6668 -3.95916 365.38 57.4256 -5.49346
lowerback -7.12168 1.93259 5.09882
upperback -6.30274 2.47866 0.256542
thorax -2.35317 1.13063 -2.46561
lowerneck -11.1767 4.79315 12.6693
upperneck 41.7362 7.82099 -5.56232
head 18.3227 5.02685 -3.26754
rclavicle 7.65135e-014 4.27387e-015
rhumerus -34.0521 6.7731 -86.126
rradius 38.9004
rwrist 0.15582
rhand -14.9375 -6.21721
rfingers 7.12502
rthumb 11.225 -35.8969
lclavicle 7.65135e-014 4.27387e-015
lhumerus -48.2705 10.0127 70.1809
lradius 30.7653
lwrist -18.7573
lhand -4.21254 11.7029
lfingers 7.12502
lthumb 21.5499 40.524
rfemur -9.10359 10.4221 27.6019
rtibia 16.7926
rfoot -15.5703 1.38113
rtoes 14.8248
lfemur -32.5626 -15.8221 1.75401
ltibia 25.6309
lfoot -5.60908 -2.14434
ltoes -11.1453
4256
root 11.8007 15.6678 -3.9594 365.53 56.3741 -5.39122
lowerback -7.13832 1.96608 5.06154
upperback -6.28842 2.52019 0.245504
thorax -2.32619 1.15213 -2.45288
lowerneck -11.3367 4.71499 12.6311
upperneck 41.6673 7.5799 -5.4523
head 18.2783 4.91777 -3.25438
rclavicle -4.65591e-014 4.47266e-016
rhumerus -34.0385 6.61429 -86.1741
rradius 38.6575
rwrist 0.397353
rhand -14.903 -6.19949
rfingers 7.12502
rthumb 11.2583 -35.8774
lclavicle -4.65591e-014 4.47266e-016
lhumerus -48.1709 9.7854 70.3092
lradius 30.9128
lwrist -18.6548
lhand -4.18543 11.6926
lfingers 7.12502
lthumb 21.5759 40.5107
rfemur -8.84096 10.747 27.3589
rtibia 16.6028
rfoot -15.6589 2.01821
rtoes 14.7173
lfemur -32.3984 -16.2693 2.38921
ltibia 24.5512
lfoot -5.16231 -4.58385
ltoes -11.833
4257
root 11.8812 15.6685 -3.96042 365.683 55.3203 -5.27409
lowerback -7.1246 1.99361 5.02701
upperback -6.29305 2.55631 0.219325
thorax -2.33559 1.16942 -2.45914
lowerneck -11.4612 4.61795 12.6048
upperneck 41.5945 7.30646 -5.33047
head 18.2182 4.80011 -3.24467
rclavicle 4.76089e-014 -8.82107e-015
rhumerus -34.0751 6.40464 -86.2204
rradius 38.3883
rwrist 0.628056
rhand -14.9102 -6.23532
rfingers 7.12502
rthumb 11.2513 -35.9136
lclavicle 4.76089e-014 -8.82107e-015
lhumerus -48.0986 9.57119 70.3869
lradius 31.0409
lwrist -18.5665
lhand -4.14988 11.6409
lfingers 7.12502
lthumb 21.61 40.4551
rfemur -8.59451 11.0966 27.0929
rtibia 16.4606
rfoot -15.7658 2.61559
rtoes 14.5933
lfemur -32.1995 -16.7617 2.98249
ltibia 23.5501
lfoot -4.6856 -6.92582
ltoes -12.1573
4258
root 11.9629 15.6689 -3.96258 365.851 54.2543 -5.14281
lowerback -7.08914 2.00452 4.98291
upperback -6.31617 2.57319 0.197428
thorax -2.37847 1.17654 -2.45796
lowerneck -11.551 4.51631 12.5708
upperneck 41.512 7.03257 -5.20675
head 18.1433 4.68174 -3.23322
rclavicle -8.73884e-014 -8.86455e-015
rhumerus -34.1412 6.18399 -86.2494
rradius 38.0827
rwrist 0.864468
rhand -14.9316 -6.30292
rfingers 7.12502
rthumb 11.2308 -35.9823
lclavicle -8.73884e-014 -8.86455e-015
lhumerus -48.0677 9.41956 70.4177
lradius 31.1507
lwrist -18.4986
lhand -4.13293 11.5666
lfingers 7.12502
lthumb 21.6263 40.3789
rfemur -8.38216 11.478 26.7992
rtibia 16.3664
rfoot -15.8861 3.17917
rtoes 14.4501
lfemur -31.9796 -17.276 3.52585
ltibia 22.6364
lfoot -4.15669 -9.0621
ltoes -12.2761
4259
root 12.0456 15.6695 -3.96541 366.024 53.1641 -5.01223
lowerback -7.04511 2.00059 4.92726
upperback -6.34897 2.57209 0.19103
thorax -2.43873 1.17491 -2.43587
lowerneck -11.6344 4.41446 12.4958
upperneck 41.4341 6.76344 -5.06052
head 18.0674 4.56195 -3.20306
rclavicle -3.73455e-014 -1.60596e-014
rhumerus -34.2228 5.98921 -86.2532
rradius 37.7469
rwrist 1.09809
rhand -14.9942 -6.34356
rfingers 7.12502
rthumb 11.1703 -36.0262
lclavicle -3.73455e-014 -1.60596e-014
lhumerus -48.0748 9.32074 70.4262
lradius 31.2517
lwrist -18.4452
lhand -4.15029 11.5024
lfingers 7.12502
lthumb 21.6096 40.3166
rfemur -8.21035 11.9122 26.4855
rtibia 16.3197
rfoot -16.014 3.7048
rtoes 14.3115
lfemur -31.7341 -17.8307 4.04414
ltibia 21.8191
lfoot -3.58868 -10.8758
ltoes -12.1078
4260
root 12.1295 15.6704 -3.96979 366.211 52.0445 -4.88904
lowerback -7.01345 1.97751 4.86304
upperback -6.38295 2.54563 0.211404
thorax -2.49678 1.16157 -2.38229
lowerneck -11.7267 4.32353 12.3751
upperneck 41.3535 6.52062 -4.9068
head 17.9941 4.44586 -3.15612
rclavicle 1.00601e-013 5.26469e-015
rhumerus -34.2893 5.8413 -86.221
rradius 37.377
rwrist 1.31822
rhand -15.0688 -6.38485
rfingers 7.12502
rthumb 11.0984 -36.0714
lclavicle 1.00601e-013 5.26469e-015
lhumerus -48.1175 9.31566 70.4107
lradius 31.3457
lwrist -18.4162
lhand -4.19362 11.4395
lfingers 7.12502
lthumb 21.568 40.2585
rfemur -8.09902 12.3781 26.1492
rtibia 16.3241
rfoot -16.149 4.2198
rtoes 14.1798
lfemur -31.4736 -18.4063 4.53326
ltibia 21.1035
lfoot -3.0126 -12.3041
ltoes -11.8213
4261
root 12.215 15.6716 -3.97585 366.414 50.8966 -4.75843
lowerback -6.98942 1.95003 4.79418
upperback -6.417 2.51309 0.238
thorax -2.55149 1.14562 -2.31969
lowerneck -11.8406 4.23182 12.2391
upperneck 41.2752 6.27599 -4.74765
head 17.9281 4.32688 -3.10413
rclavicle -1.12259e-014 -1.76421e-015
rhumerus -34.3445 5.65332 -86.1311
rradius 36.9714
rwrist 1.60432
rhand -15.0951 -6.36678
rfingers 7.12502
rthumb 11.0731 -36.0547
lclavicle -1.12259e-014 -1.76421e-015
lhumerus -48.1819 9.32134 70.3942
lradius 31.4432
lwrist -18.3842
lhand -4.2557 11.4035
lfingers 7.12502
lthumb 21.5084 40.2294
rfemur -8.0404 12.8582 25.7796
rtibia 16.3791
rfoot -16.295 4.74295
rtoes 14.0551
lfemur -31.1862 -18.9589 4.9535
ltibia 20.4967
lfoot -2.44242 -13.376
ltoes -11.4827
